<svg xmlns="http://www.w3.org/2000/svg" viewBox="0 0 390.95 360.41"><defs><style>.cls-1{fill:#f5d36c;}</style></defs><title>Ativo 7</title><g id="Camada_2" data-name="Camada 2"><g id="Layer_1" data-name="Layer 1"><path class="cls-1" d="M238.92,94.21a7.63,7.63,0,1,0,10.79-10.79l-.1-.11a7.64,7.64,0,0,0-10.8,10.8Z"/><path class="cls-1" d="M362.1,166.46l26.62-26.61a7.64,7.64,0,0,0-5.4-13H328.15A166.47,166.47,0,0,0,48.76,48.76a166.64,166.64,0,0,0,30.6,259.61L56.35,349A7.64,7.64,0,0,0,63,360.41h39.32a7.66,7.66,0,0,0,6.65-3.87l16.26-28.74a168.57,168.57,0,0,0,82.46,0L224,356.54a7.63,7.63,0,0,0,6.64,3.87h39.33a7.64,7.64,0,0,0,6.64-11.4l-23-40.64a167,167,0,0,0,74.58-102.26h55.17a7.63,7.63,0,0,0,5.4-13Zm-14-7.63H294.85l16.74-16.75h53.29ZM97.87,345.14H76.09l16.62-29.36a165,165,0,0,0,17.55,7.46Zm159,0H235.06l-12.4-21.9a164.11,164.11,0,0,0,17.55-7.46Zm16.54-71.77a151.84,151.84,0,0,1-33.48,25.32,4.78,4.78,0,0,0-.45.23l-.27.16a148.7,148.7,0,0,1-29.27,12.26,7.34,7.34,0,0,0-1.19.35,152.73,152.73,0,0,1-84.5,0,8.13,8.13,0,0,0-1.19-.35,148.7,148.7,0,0,1-29.27-12.26l-.27-.16a3.81,3.81,0,0,0-.45-.23,152.08,152.08,0,0,1-33.48-25.32A151.19,151.19,0,1,1,312.39,126.81h-4a7.65,7.65,0,0,0-5.4,2.24l-20.26,20.26a117.86,117.86,0,0,0-13.31-39.65A7.64,7.64,0,1,0,256.09,117a101.42,101.42,0,0,1,12.33,41.79H234.75a68.76,68.76,0,1,0,0,15.27h33.64a102.22,102.22,0,1,1-52.5-97.26,7.64,7.64,0,0,0,7.38-13.37,118.43,118.43,0,0,0-72.52-13.55A117.6,117.6,0,0,0,83.31,249.61a117.59,117.59,0,0,0,199.48-66L303,203.88a7.65,7.65,0,0,0,5.4,2.23h3.95a150.75,150.75,0,0,1-39,67.26Zm-82-121.31A7.63,7.63,0,0,0,181,149.27l-18.33,10.58a7.64,7.64,0,0,0,0,13.22L181,183.65a7.53,7.53,0,0,0,3.81,1,7.62,7.62,0,0,0,7-10.58h27.55a53.44,53.44,0,1,1,0-15.27H191.82a7.61,7.61,0,0,0-.42-6.77Zm120.19,38.78L294.85,174.1h53.29l16.74,16.74Z"/></g></g></svg>