<svg xmlns="http://www.w3.org/2000/svg" viewBox="0 0 234.87 234.73"><defs><style>.cls-1{fill:#f5d36c;}</style></defs><title>Ativo 4</title><g id="Camada_2" data-name="Camada 2"><g id="Layer_1" data-name="Layer 1"><g id="F54TqM"><path class="cls-1" d="M102.58,175.94v14.64H97.45q-40.14,0-80.27,0c-4.59,0-8.69-1.23-12-4.44a16.2,16.2,0,0,1-5-12.25q0-44.68,0-89.38C.12,72.37.45,60.22,0,48.09-.37,37.21,6.84,28.35,19,29.25c.93.07,1.88,0,3.14,0,0,2.65,0,5.09,0,7.54a14.59,14.59,0,0,0,13,14.47c7.74.69,14.7-4.17,16-11.67.57-3.24.1-6.66.1-10.17h88c0,2.26,0,4.52,0,6.79.14,7.49,4.49,13,11.61,14.77a14.69,14.69,0,0,0,18-13.47c.11-2.62,0-5.25,0-7.84,12.85-2.49,21.53,4.87,21.71,15.4.33,18.85.09,37.7.09,56.55a3.61,3.61,0,0,1-.24.84H176.15V73.58H14.79c0,.8-.13,1.65-.13,2.51q0,48.27,0,96.56c0,3.27,0,3.29,3.4,3.29h84.53Z"/><path class="cls-1" d="M117.53,176A58.57,58.57,0,0,1,176,117.42c32.48,0,59,26.39,58.91,58.69A58.67,58.67,0,1,1,117.53,176Zm14.54-.37c-.4,24.1,19.2,44.15,43.54,44.54,23.82.39,43.95-19.19,44.42-43.2a44.11,44.11,0,0,0-43.56-45C152.31,131.64,132.49,151.12,132.07,175.62Z"/><path class="cls-1" d="M91.09,87.1a15.22,15.22,0,1,1-15.26,15.14A15.23,15.23,0,0,1,91.09,87.1Z"/><path class="cls-1" d="M119.8,102.24a15.23,15.23,0,1,1,15.37,15.31A15.13,15.13,0,0,1,119.8,102.24Z"/><path class="cls-1" d="M91.31,156.77A15.09,15.09,0,0,1,75.83,141.9a15.29,15.29,0,0,1,30.58-.16A15.1,15.1,0,0,1,91.31,156.77Z"/><path class="cls-1" d="M62.39,102.47A15.15,15.15,0,0,1,47,117.53c-8.55-.16-15-7-14.84-15.78a15.1,15.1,0,0,1,30.19.72Z"/><path class="cls-1" d="M47,156.76c-8.67-.13-15-6.8-14.82-15.68a15.11,15.11,0,0,1,30.2,1A14.91,14.91,0,0,1,47,156.76Z"/><path class="cls-1" d="M29.38,21.93c0-4.79-.06-9.57,0-14.35A7.4,7.4,0,0,1,35.32.16,6.91,6.91,0,0,1,43,3.78a10.73,10.73,0,0,1,1,4.36c.08,9.25.07,18.49,0,27.74,0,4.86-3,8.06-7.32,8s-7.25-3.25-7.26-8Q29.38,28.86,29.38,21.93Z"/><path class="cls-1" d="M146.79,21.76c0-4.62,0-9.25,0-13.87S149.92.06,154.06,0s7.22,3.06,7.28,7.57c.12,9.65.1,19.3,0,29a7,7,0,0,1-7.21,7.32,7.18,7.18,0,0,1-7.33-7.49C146.74,31.49,146.79,26.63,146.79,21.76Z"/><path class="cls-1" d="M170.8,187.5c.72-.68,1.36-1.26,2-1.87Q184.53,174,196.29,162.4c3.61-3.56,7.82-3.73,11-.48,2.95,3.06,2.67,7.41-.76,10.85q-14.9,14.91-29.81,29.8c-3.86,3.85-7.62,3.86-11.45,0q-10-10-20-20c-2.88-2.91-3.16-6.49-.92-9.54a7.16,7.16,0,0,1,8.95-2.32,10.56,10.56,0,0,1,2.63,2c4.38,4.31,8.71,8.67,13.07,13C169.54,186.35,170.13,186.87,170.8,187.5Z"/></g></g></g></svg>