<svg xmlns="http://www.w3.org/2000/svg" viewBox="0 0 318.01 192.57"><defs><style>.cls-1{fill:#f5d36c;}</style></defs><title>Ativo 2</title><g id="Camada_2" data-name="Camada 2"><g id="Layer_1" data-name="Layer 1"><g id="bv6p2A"><path class="cls-1" d="M258,72.06l-9.39,2.59q-43,11.94-85.92,23.85a15.78,15.78,0,0,1-8.57,0Q81.94,78.38,9.75,58.37c-.9-.24-1.83-.33-2.75-.48a8.27,8.27,0,0,1-.49-16.25c5.54-1.38,11.07-2.78,16.57-4.3Q90,18.78,156.81.26a9.79,9.79,0,0,1,5,.14q34.5,9.47,68.94,19.09,38.84,10.8,77.66,21.57c.91.25,1.95,0,2.89.22a8.25,8.25,0,0,1,.27,16.16q-8,2-15.92,4.16c-6.58,1.78-13.13,3.66-19.7,5.43a1.53,1.53,0,0,0-1.35,1.8c0,13.21,0,26.42.07,39.63a2.58,2.58,0,0,0,1,1.8c9.26,6.59,9.67,19,.78,26.06a1.93,1.93,0,0,0-.77,2.11q3.53,21,7.06,42a7.69,7.69,0,0,1-2,6.54c-2.76,3.21-6.46,4.69-10.52,5.3-5,.76-9.83.32-14.23-2.24a18.09,18.09,0,0,1-4.64-4.09,6.62,6.62,0,0,1-1.28-5.6c2.38-13.92,4.69-27.86,7-41.79a2,2,0,0,0-.84-2.24c-8.79-7-8.37-19.46.79-26a2.45,2.45,0,0,0,1-1.6c.05-11.95,0-23.89,0-35.83A6,6,0,0,0,258,72.06Z"/><path class="cls-1" d="M76.44,92.82l15.31,4.29c21.27,6,42.51,12,63.81,17.88a14.37,14.37,0,0,0,7.28-.09c25.68-7.09,51.32-14.36,77-21.58.52-.14,1.05-.25,1.77-.42V95c0,17.06-.15,34.12.07,51.19.09,6.58-2.51,11.56-7.24,15.73-6.09,5.36-13.32,8.68-20.88,11.34a148.47,148.47,0,0,1-34.94,7.31,197.1,197.1,0,0,1-36.11.28c-16.13-1.4-31.93-4.27-46.73-11.2-5.72-2.67-11-5.94-15.17-10.87a17,17,0,0,1-4.17-11.34c.07-17.5,0-35,0-52.51Z"/></g></g></g></svg>