<svg xmlns="http://www.w3.org/2000/svg" viewBox="0 0 244.57 221.38"><defs><style>.cls-1{fill:#f5d36c;}</style></defs><title>Ativo 1</title><g id="Camada_2" data-name="Camada 2"><g id="Layer_1" data-name="Layer 1"><path class="cls-1" d="M11.52,176.15C8,122,4.45,67.92.9,13.68H88.35c-.26,4.33-.49,8.59-.77,12.85Q86,50.25,84.46,74c-.87,13.23-1.59,26.47-2.68,39.69-.22,2.73-1.77,5.35-2.8,8-.1.26-.81.41-1.24.42-2.12,0-2.81,1.18-2.79,3.15,0,4.9,0,9.8,0,14.7v2.46H71.6c-2.33,0-3,.7-3,3q0,12.54,0,25.09v5.64Zm33.2-92q11.91,0,23.84,0c2.53,0,3.64-.69,3.62-2.23S71,79.64,68.52,79.63H20.85c-.68,0-1.54-.16-2,.18-.72.55-1.63,1.48-1.6,2.2s1,1.52,1.82,2c.5.31,1.33.1,2,.1Q32.9,84.13,44.72,84.11ZM44.43,70.5c8.15,0,16.3,0,24.45,0,1.64,0,3.08-.24,3.29-2.2.16-1.47-1.11-2.28-3.36-2.3H21.13c-.68,0-1.5-.21-2,.09-.77.47-1.88,1.33-1.85,2,0,.82,1,1.7,1.73,2.33.37.3,1.18.09,1.79.09Zm0,27.34H54.65c2,0,3.32-.92,3.17-2.34-.19-1.82-1.5-2.16-3.1-2.16q-10.09,0-20.19,0c-1.61,0-3,.35-3,2.19s1.34,2.32,2.95,2.32Z"/><path class="cls-1" d="M189.43,221.37a55.21,55.21,0,0,1,0-110.42c30.72,0,55.18,24.69,55.18,55.72C244.56,196.81,219.82,221.35,189.43,221.37ZM144,166.12a90.19,90.19,0,0,0,1.28,9.47c4.07,17.07,14.42,28.7,31.22,33.74,16.57,5,31.42,1,44.18-10.67,1.57-1.44,1.77-2.83.65-3.82-1.44-1.27-2.54-.46-3.69.61a40.39,40.39,0,0,1-33.5,11.07c-22-2.46-38.5-24-35.09-45.89,3.59-23,23.66-37.87,46.79-34.61,21.79,3.08,37.76,25.1,33.61,46.72-.81,4.22-2.6,8.25-4.06,12.33-.51,1.43-.49,2.61.91,3.3s2.38.07,3-1.21c.16-.3.31-.61.46-.91a44.63,44.63,0,0,0,4.1-27.37,45.16,45.16,0,0,0-48.66-37.66C162.35,123.14,144.26,142.92,144,166.12Z"/><path class="cls-1" d="M73,146.93h59.84c-4.7,14.83-4.27,29.34,2,43.48s16.66,24.11,30.59,30.86c-.69,0-1.37.1-2.06.1q-36,0-72,0A18,18,0,0,1,73,203.07q0-27,0-54Zm4.59,24.64c0,4.62,0,9.23,0,13.85,0,2.15.78,3.24,2.29,3.14,1.91-.12,2.16-1.47,2.16-3,0-9.17,0-18.34,0-27.5,0-2.19-.74-3.27-2.25-3.15-2,.16-2.19,1.64-2.19,3.25C77.63,162.61,77.62,167.09,77.62,171.57Z"/><path class="cls-1" d="M130.76,84.76c15.72,4.1,29.2,10.83,37.47,25.61a62.7,62.7,0,0,0-18.42,11.13,3,3,0,0,1-1.86.55q-31.62,0-63.26,0c-.26,0-.53,0-1.08-.1.24-.76.42-1.44.68-2.08,2.51-6.17,7.34-9.8,13.55-11.33,5.85-1.45,11.88-2.2,17.81-3.33a56.4,56.4,0,0,0,7.53-1.76c6.92-2.34,9.78-7.43,8.44-14.64C131.39,87.58,131.1,86.34,130.76,84.76Zm-8.93,23.85,0,.13a17.36,17.36,0,0,0-3.24.21c-4.32,1.08-8.63,2.22-12.91,3.47-1.43.42-2.37,1.52-1.61,3.13s2,1.56,3.45.87c.18-.09.38-.15.57-.23,6.07-2.48,12.31-3.7,18.88-2.51a2.14,2.14,0,0,0,2.78-1.7c.32-1.56-.56-2.46-2.06-2.68C125.73,109,123.78,108.84,121.83,108.61Zm33.39,2.79c-.16-.78-.2-1.05-.28-1.3-1.31-3.91-3-7.68-6.25-10.32a27.24,27.24,0,0,0-6.5-3.54,2,2,0,0,0-2.78,1.61,2,2,0,0,0,1.69,2.58c3.79,1,6.12,3.63,7.85,6.91.75,1.43,1.11,3.09,2,4.44a3.07,3.07,0,0,0,2.42,1.21C154.08,112.9,154.71,111.86,155.22,111.4Z"/><path class="cls-1" d="M79.55,142.16V126.7h64.82a5.25,5.25,0,0,1-.3.7c-2.95,4.62-5.9,9.26-8.91,13.84a2.37,2.37,0,0,1-1.62,1.09q-26.71.07-53.44,0A3,3,0,0,1,79.55,142.16Z"/><path class="cls-1" d="M89.28,0c-.18,2.75-.34,5.32-.52,7.9a6.12,6.12,0,0,1-.26,1H.62L0,0Z"/><path class="cls-1" d="M11.7,208.73H69a57.3,57.3,0,0,0,2.57,5.65c1,1.8,2.4,3.42,4,5.61-1.69.48-3.24,1.31-4.8,1.32q-26.11.13-52.22,0a6.61,6.61,0,0,1-6.84-6.83C11.67,212.63,11.7,210.74,11.7,208.73Z"/><path class="cls-1" d="M22.41,204H11.83V180.87H68.41v23c-1.4.59-1.68-.22-1.9-1.39A22.23,22.23,0,0,0,22.84,202C22.71,202.69,22.56,203.34,22.41,204Z"/><path class="cls-1" d="M62,204H27.25c.31-8.33,8.89-15.68,17.83-15.4S62.08,196.29,62,204Z"/></g></g></svg>