<svg xmlns="http://www.w3.org/2000/svg" viewBox="0 0 161.54 161.54"><defs><style>.cls-1{fill:#184242;}</style></defs><title>Ativo 1</title><g id="Camada_2" data-name="Camada 2"><g id="Layer_1" data-name="Layer 1"><path class="cls-1" d="M93.79,160.49c-.67.11-1.34.21-2,.3.68-.09,1.35-.19,2-.3Z"/><path class="cls-1" d="M95.41,160.21l-1,.17,1-.17Z"/><path class="cls-1" d="M90,161c-.78.09-1.58.16-2.37.23.79-.07,1.59-.14,2.37-.23Z"/><path class="cls-1" d="M91.52,160.83l-1.14.14,1.14-.14Z"/><path class="cls-1" d="M97.61,159.78l-.85.18.85-.18Z"/><path class="cls-1" d="M103.07,158.42l-.69.19.69-.19Z"/><path class="cls-1" d="M101.42,158.87l-.75.2.75-.2Z"/><path class="cls-1" d="M99.26,159.41l-.8.18.8-.18Z"/><path class="cls-1" d="M87.56,161.25l-1.27.1,1.27-.1Z"/><path class="cls-1" d="M161.54,80.77a80.77,80.77,0,1,0-80.77,80.77l1.42,0V98.65H64.84V78.42H82.19V63.54c0-17.26,10.54-26.65,25.93-26.65a144.74,144.74,0,0,1,15.56.79v18H113.06c-8.37,0-10,4-10,9.82V78.42h20l-2.61,20.23H103.07v59.77a80.81,80.81,0,0,0,58.47-77.65Z"/><path class="cls-1" d="M86.11,161.36c-.84.06-1.69.1-2.53.13.84,0,1.69-.07,2.53-.13Z"/><path class="cls-1" d="M83.53,161.49c-.44,0-.89,0-1.34,0,.45,0,.9,0,1.34,0Z"/></g></g></svg>