<svg xmlns="http://www.w3.org/2000/svg" viewBox="0 0 161.54 161.54"><defs><style>.cls-1{fill:#184242;}</style></defs><title>Ativo 2</title><g id="Camada_2" data-name="Camada 2"><g id="Layer_1" data-name="Layer 1"><path class="cls-1" d="M96.23,80.77A15.46,15.46,0,1,1,80.77,65.31,15.46,15.46,0,0,1,96.23,80.77Z"/><path class="cls-1" d="M116.93,53.42a14.47,14.47,0,0,0-3.47-5.34,14.32,14.32,0,0,0-5.34-3.46A25.33,25.33,0,0,0,99.51,43c-4.89-.22-6.36-.27-18.74-.27S66.92,42.79,62,43a25.33,25.33,0,0,0-8.61,1.6,14.32,14.32,0,0,0-5.34,3.46,14.47,14.47,0,0,0-3.47,5.34A25.65,25.65,0,0,0,43,62c-.23,4.89-.27,6.36-.27,18.74s0,13.85.27,18.74a25.59,25.59,0,0,0,1.59,8.61,15.34,15.34,0,0,0,8.81,8.81A25.65,25.65,0,0,0,62,118.52c4.89.23,6.35.27,18.74.27s13.85,0,18.74-.27a25.65,25.65,0,0,0,8.61-1.59,15.35,15.35,0,0,0,8.81-8.81,25.59,25.59,0,0,0,1.59-8.61c.23-4.89.27-6.35.27-18.74s0-13.85-.27-18.74a25.65,25.65,0,0,0-1.59-8.61ZM80.77,104.59a23.82,23.82,0,1,1,23.82-23.82,23.83,23.83,0,0,1-23.82,23.82Zm24.76-43A5.57,5.57,0,1,1,111.09,56a5.57,5.57,0,0,1-5.56,5.57Z"/><path class="cls-1" d="M80.77,0a80.77,80.77,0,1,0,80.77,80.77A80.78,80.78,0,0,0,80.77,0Zm46.1,99.89a34.08,34.08,0,0,1-2.15,11.26,23.74,23.74,0,0,1-13.57,13.57,34.08,34.08,0,0,1-11.26,2.15c-4.94.23-6.52.28-19.12.28s-14.17-.05-19.12-.28a34.08,34.08,0,0,1-11.26-2.15,23.72,23.72,0,0,1-13.56-13.57,34.06,34.06,0,0,1-2.16-11.26c-.23-4.94-.28-6.52-.28-19.12s0-14.18.28-19.12a34.08,34.08,0,0,1,2.15-11.26A23.8,23.8,0,0,1,50.39,36.83a34.06,34.06,0,0,1,11.26-2.16c4.94-.23,6.52-.28,19.12-.28s14.18,0,19.12.28a34.34,34.34,0,0,1,11.26,2.15,23.78,23.78,0,0,1,13.57,13.57,34.08,34.08,0,0,1,2.15,11.26c.23,4.94.28,6.52.28,19.12s-.05,14.18-.28,19.12Z"/></g></g></svg>