<svg xmlns="http://www.w3.org/2000/svg" viewBox="0 0 470.61 254.15"><defs><style>.cls-1{fill:#f5d36b;}.cls-2{fill:#fff;}.cls-3{fill:#f5d36c;}.cls-4{fill:#fef0d4;}</style></defs><title>Ativo 8</title><g id="Camada_2" data-name="Camada 2"><g id="Layer_1" data-name="Layer 1"><path class="cls-1" d="M265.24,23.14l.54-.12c2.86,2.58,5.83,5.06,8.58,7.76C296.3,52.37,305.67,78.39,301.77,109c-.49,3.86-1.35,7.68-2.11,11.92,2.26-2,4.16-3.78,6.15-5.46A89.13,89.13,0,0,1,358.67,94a92.85,92.85,0,0,1,42.39,7.44,89,89,0,0,1-5.84,17.78,86.74,86.74,0,0,1-13.38,21.51,84.08,84.08,0,0,1-18.22,16.42c-1.76,1.13-3.79,2-5.15,3.7-3.74-1.44-7-3.87-10.65-5.45a76.58,76.58,0,0,0-23-5.84,65.25,65.25,0,0,0-20,1.3,64,64,0,0,0-24.66,10.75c-2.13,1.56-4.27,3.1-6.62,4.8,3.76-33.75-7.68-59.53-37.74-76,.15-2.69.18-5.36.48-8A94.92,94.92,0,0,1,242,57.83a91.76,91.76,0,0,1,14.33-24.56C259.15,29.78,262.26,26.51,265.24,23.14Z"/><path class="cls-1" d="M234.71,90.36a73,73,0,0,0-23.22,18.8,70.59,70.59,0,0,0-14,57l-.6.2c-1.9-1.44-3.75-2.95-5.71-4.3a72,72,0,0,0-27.5-11.53,68.67,68.67,0,0,0-27.29.33,62.63,62.63,0,0,0-21.31,8.59,6.38,6.38,0,0,1-2.93,1.39c-.2-.51-.64-.72-1.08-1A90.27,90.27,0,0,1,97.75,150a89.33,89.33,0,0,1-22.6-31.43c-2.35-5.55-4.55-11.14-5.6-17.11,16.14-6.61,32.78-9.16,50.16-6.54a89.21,89.21,0,0,1,42.53,18.51c2.91,2.29,5.66,4.79,8.75,7.42a14.09,14.09,0,0,0-.21-1.66,88.94,88.94,0,0,1-.32-44.29c5.3-21.24,17-38.27,34.42-51.44,5.76,4.61,10.19,10.41,14.26,16.46a86.1,86.1,0,0,1,13,29.29A93.13,93.13,0,0,1,234.71,90.36Z"/><path class="cls-2" d="M204.88,23.46c-17.41,13.17-29.12,30.2-34.42,51.44a88.94,88.94,0,0,0,.32,44.29,14.09,14.09,0,0,1,.21,1.66c-3.09-2.63-5.84-5.13-8.75-7.42a89.21,89.21,0,0,0-42.53-18.51c-17.38-2.62-34-.07-50.16,6.54l-.44-.47a122.9,122.9,0,0,1-2.54-30.9c.18-4,.71-7.88,1-11.83.08-1.08.72-1.43,1.55-1.69a128.54,128.54,0,0,1,23.3-5.22,104.75,104.75,0,0,1,22.94-.46,79.08,79.08,0,0,1,14.35,2.41c2,.59,2.71.08,3.33-2,6-20,17.4-36.44,32.68-50.42a2.85,2.85,0,0,1,3.53-.52A121.18,121.18,0,0,1,204.85,23,3.4,3.4,0,0,1,204.88,23.46Z"/><path class="cls-2" d="M401.06,101.47A92.85,92.85,0,0,0,358.67,94a89.13,89.13,0,0,0-52.86,21.46c-2,1.68-3.89,3.45-6.15,5.46.76-4.24,1.62-8.06,2.11-11.92,3.9-30.64-5.47-56.66-27.41-78.25-2.75-2.7-5.72-5.18-8.58-7.76A120.36,120.36,0,0,1,301.37.36,2.85,2.85,0,0,1,304.9,1c15.42,14.1,26.92,30.73,32.8,50.95.5,1.74,1.25,1.88,2.72,1.52a101.06,101.06,0,0,1,37-2.13,136.25,136.25,0,0,1,23.33,5.06c1.66.5,2.13,1.29,2.35,3a137.59,137.59,0,0,1,1,19.67,108.65,108.65,0,0,1-2.34,20c-.13.65-.18,1.32-.27,2C401.36,101.16,401.21,101.31,401.06,101.47Z"/><path class="cls-3" d="M431.45,153.78a1.14,1.14,0,0,1,.06.45c-.53,3.05-.92,6.14-1.63,9.15-5.89,25.16-19.48,44.84-41.62,58.45-7.57,4.66-15.81,7.74-24.21,10.46h-52.8c4.72-2.19,9-4,13-6.26A68.34,68.34,0,0,0,343,209.91a65.35,65.35,0,0,0,10.56-18.12,66.88,66.88,0,0,0,4.91-26c0-1.43,0-2.87.06-4.3,2.63-.73,4.79-2.42,7.25-3.46a103.71,103.71,0,0,1,26.55-7.44,90.27,90.27,0,0,1,27.84.79C424,152,427.63,153.27,431.45,153.78Z"/><path class="cls-3" d="M39.09,154.17a.76.76,0,0,1,.06-.42c5.9-1.09,11.75-2.38,17.7-3.27C67,149,77,149.89,86.83,152a80.59,80.59,0,0,1,25.3,9.93c.08,5.46-.11,10.91,1,16.35a70.75,70.75,0,0,0,12.34,28.83,69.25,69.25,0,0,0,27.05,22.21c2.07,1,4.37,1.43,6.58,3.07H106.39c-3.35-1.2-6.77-2.25-10-3.63C63.08,214.79,44.39,189.62,39.09,154.17Z"/><path class="cls-2" d="M237.33,254.09q-102.51,0-205,.06c-2.5,0-3.26-.64-3-3.05a27.59,27.59,0,0,0,0-5.06c-.09-1.39.47-1.77,1.75-1.67s2.37,0,3.55,0q203.88,0,407.77-.06c2.29,0,3,.59,2.72,2.79a31.5,31.5,0,0,0,0,5.32c.09,1.39-.48,1.81-1.76,1.66a17.4,17.4,0,0,0-1.77,0Z"/><path class="cls-2" d="M39.09,154.17c5.3,35.45,24,60.62,57.25,74.57,3.28,1.38,6.7,2.43,10,3.63q-37.36,0-74.73,0a5.13,5.13,0,0,1-4.14-1.78C13.26,215.35,4.62,197.22.15,177c-.25-1.18-.32-2.16.89-3.09a117.5,117.5,0,0,1,37.3-19.59A4.67,4.67,0,0,1,39.09,154.17Z"/><path class="cls-2" d="M364.05,232.29c8.4-2.72,16.64-5.8,24.21-10.46,22.14-13.61,35.73-33.29,41.62-58.45.71-3,1.1-6.1,1.63-9.15,9.38,2.35,17.91,6.62,26.17,11.5a132.09,132.09,0,0,1,11.67,8,2.54,2.54,0,0,1,1.17,2.95c-4.5,20.53-13.2,38.89-27.79,54.26a3.79,3.79,0,0,1-3,1.49q-37.22-.07-74.43,0C364.9,232.36,364.47,232.31,364.05,232.29Z"/><path class="cls-4" d="M431.45,153.78c-3.82-.51-7.47-1.74-11.27-2.41a90.27,90.27,0,0,0-27.84-.79A103.71,103.71,0,0,0,365.79,158c-2.46,1-4.62,2.73-7.25,3.46,0-.2,0-.4-.07-.6,1.36-1.72,3.39-2.57,5.15-3.7a84.08,84.08,0,0,0,18.22-16.42,86.74,86.74,0,0,0,13.38-21.51,89,89,0,0,0,5.84-17.78c.15-.16.3-.31.44-.47,1.21,1.81,3.38,2,5.1,2.88a121.47,121.47,0,0,1,17.56,10.56c1.73,1.24,3.27,2.77,5.06,3.93a3.63,3.63,0,0,1,1.69,2.9c.89,7.83,1.91,15.63,1.62,23.55C432.42,147.86,431.67,150.78,431.45,153.78Z"/><path class="cls-4" d="M204.88,23.46a3.4,3.4,0,0,0,0-.45,2.52,2.52,0,0,0,1.77-.87c4.86-4.45,10.71-7.31,16.5-10.22A100.68,100.68,0,0,1,234.4,7.13c1.76-.63,3.53.63,5.18,1.32a125.78,125.78,0,0,1,19,9.84,53,53,0,0,1,6.61,4.85c-3,3.37-6.09,6.64-8.92,10.13A91.76,91.76,0,0,0,242,57.83a94.92,94.92,0,0,0-5.73,24.56c-.3,2.69-.33,5.36-.48,8l-1.07-.08a93.13,93.13,0,0,0-2.62-21.15,86.1,86.1,0,0,0-13-29.29C215.07,33.87,210.64,28.07,204.88,23.46Z"/><path class="cls-4" d="M112.13,161.91A80.59,80.59,0,0,0,86.83,152c-9.85-2.09-19.81-3-30-1.5-6,.89-11.8,2.18-17.7,3.27-1.32-6-1.2-12.05-.95-18.08.2-4.84.91-9.66,1.51-14.48.28-2.33,2.41-3.54,4-4.67a143.83,143.83,0,0,1,20.93-13c1.54-.76,3.49-.78,4.5-2.49l.44.47c1,6,3.25,11.56,5.6,17.11A89.33,89.33,0,0,0,97.75,150a90.27,90.27,0,0,0,13.31,9.87c.44.28.88.49,1.08,1Z"/></g></g></svg>