<svg xmlns="http://www.w3.org/2000/svg" viewBox="0 0 206.72 275.39"><defs><style>.cls-1{fill:#f5d36c;}</style></defs><title>Ativo 3</title><g id="Camada_2" data-name="Camada 2"><g id="Layer_1" data-name="Layer 1"><g id="hpyZDh"><path class="cls-1" d="M72.68,275.39a43.22,43.22,0,0,1-4.36-3.84c-5.35-6.14-10.71-12.29-15.83-18.64-1.92-2.39-3.83-3-6.84-2.62-8.41,1.23-16.87,2.17-25.33,3.06-6.11.64-8.7-2.88-6.47-8.62q10.13-26,20.34-52a6.94,6.94,0,0,0,0-5.56c-1.77-4.67-3.15-9.5-4.51-14.32A25.18,25.18,0,0,0,18.86,158c-4-2.65-8-5.45-11.85-8.36-6.39-4.81-8.41-11.14-6-18.78,1.51-4.77,3.16-9.5,4.82-14.22a25.74,25.74,0,0,0,0-17.36C4,93.73,2,88.15.53,82.46c-1.77-6.7,1.06-11.95,6.24-16,3.74-2.91,7.62-5.67,11.61-8.22A25.8,25.8,0,0,0,29.8,42.6a143.45,143.45,0,0,1,5.05-15.26c2.66-6.67,8.1-9.53,15.06-9.63q7.67-.11,15.32.12a23.91,23.91,0,0,0,16-5.29c3.95-3.09,7.92-6.17,12-9,6.93-4.73,13.31-4.72,20.24,0,4.13,2.83,8.09,5.93,12,9a24,24,0,0,0,16,5.26c5.19-.16,10.39-.25,15.58-.11,7.88.21,12.9,3.85,15.57,11.33,1.62,4.54,3,9.17,4.31,13.82a24.89,24.89,0,0,0,10.7,14.9c4,2.65,8,5.43,11.84,8.36,6.62,5.05,8.53,10.92,6.14,19-1.4,4.71-3.08,9.34-4.74,14a25.87,25.87,0,0,0,0,17.86c2,5.56,3.84,11.16,5.32,16.86s-.49,10.56-4.81,14.24a103.18,103.18,0,0,1-12.11,8.89,28,28,0,0,0-12.89,17.73c-1.18,4.75-3.08,9.33-4.47,14a5.93,5.93,0,0,0,.37,3.53q10.14,26.15,20.4,52.25c2.37,6.07-.12,9.51-6.66,8.84q-12.42-1.26-24.79-3c-3-.43-5.08,0-7.12,2.58-5.25,6.59-10.82,12.91-16.35,19.27a31.55,31.55,0,0,1-3.82,3.24h-2.68a8.73,8.73,0,0,1-4.52-5.3c-6.71-17.34-13.51-34.64-20.25-52-.59-1.53-1.12-2.46-3.15-2.43s-2.59.73-3.21,2.34c-6.6,17-13.28,34-19.87,51-1,2.52-2,4.89-4.4,6.39ZM59.58,28.53H50a5.34,5.34,0,0,0-5.54,3.82,106,106,0,0,0-3.31,10.48A39.4,39.4,0,0,1,22.07,69a95.7,95.7,0,0,0-9.15,6.58A4.61,4.61,0,0,0,11.24,81c1.38,4.07,2.53,8.21,4.09,12.2a38.9,38.9,0,0,1,0,29.34c-1.3,3.33-2.46,6.72-3.56,10.13-1.53,4.73-1.07,6.23,2.91,9.2,2.58,1.92,5.22,3.8,8,5.46A38.67,38.67,0,0,1,41,172.48c.9,3.72,2.22,7.35,3.44,11a5.07,5.07,0,0,0,5.23,3.8c4.83,0,9.67,0,14.5-.11,8.81-.2,16.81,2.08,23.79,7.6,3.09,2.45,6.23,4.84,9.37,7.22,5,3.81,7,3.8,12.15-.06q4.83-3.65,9.6-7.35a34.68,34.68,0,0,1,22.76-7.4c5.1.11,10.21.09,15.31.11a5,5,0,0,0,5.08-3.63c1.23-3.64,2.55-7.27,3.45-11a39.34,39.34,0,0,1,18.44-25.35,108.82,108.82,0,0,0,9.59-6.87,4.77,4.77,0,0,0,1.77-5.73c-1.4-4.06-2.6-8.19-4.15-12.18A39,39,0,0,1,191.45,93c1.49-3.73,2.59-7.62,3.9-11.42a5.19,5.19,0,0,0-2-6.39c-3.1-2.28-6.14-4.67-9.43-6.66a38.78,38.78,0,0,1-18.21-25.17c-.79-3.29-2-6.49-2.95-9.75-1.06-3.6-3.41-5.25-7.17-5.09s-7.52.07-11.28.22c-8.15.32-15.93-.86-22.79-5.63-3.23-2.25-6.31-4.72-9.44-7.11-8.54-6.55-8.88-6.49-17.51,0A130.88,130.88,0,0,1,81.12,25.3C74.67,29,67.41,29,59.58,28.53ZM72,259.07c.37-.11.5-.12.51-.16q9.14-23.22,18.17-46.46a2.76,2.76,0,0,0-.83-2.36c-2.6-2.18-5.44-4.09-8-6.27A24.2,24.2,0,0,0,65.71,198c-7.2,0-14.41,0-21.91,0q-8.31,21.24-17,43.53c1.27-.08,2.16-.11,3-.21,5.33-.64,10.76-.87,16-2.07,6.41-1.47,10.65.59,14.37,5.8C63.71,250.06,68.05,254.49,72,259.07Zm108-17.42c-5.87-15-11.59-29.59-17.31-44.21a27.37,27.37,0,0,1-3.95.63c-5.55.06-11.09.1-16.64,0a24.58,24.58,0,0,0-16.72,5.42c-2.63,2.15-5.33,4.23-8.11,6.2-1.41,1-1.67,1.92-1,3.55,2.93,7.21,5.72,14.47,8.56,21.71,3.15,8,6.29,16.08,9.6,24.55,4.38-5.13,8.76-9.74,12.51-14.82,3.46-4.66,7.3-7.19,13.2-5.36a17.65,17.65,0,0,0,2.93.37Z"/><path class="cls-1" d="M174.15,107.86c.16,38.82-31.68,70.71-70.74,70.83S32.46,146.9,32.51,108a71,71,0,0,1,71-70.88C142.29,37.17,174,68.9,174.15,107.86ZM43.48,108a59.86,59.86,0,1,0,60-60C70.51,47.84,43.43,74.93,43.48,108Z"/><path class="cls-1" d="M103.39,67.31c2.55.15,4.18,1.6,5.29,3.87,2.78,5.71,5.55,11.43,8.5,17a4.63,4.63,0,0,0,2.9,2.12c6.17,1.05,12.39,1.87,18.59,2.77,2.53.37,4.72,1.27,5.57,3.95s-.32,4.66-2.19,6.46c-4.47,4.28-8.85,8.64-13.33,12.9a3.58,3.58,0,0,0-1.29,3.72c1.15,6,2.09,12,3.14,18,.47,2.69.47,5.24-2,7s-4.71.94-7-.31c-5.36-2.88-10.8-5.62-16.15-8.52a3.66,3.66,0,0,0-4,0c-5.5,3-11.09,5.82-16.62,8.77-2.21,1.18-4.37,1.6-6.56.08s-2.6-3.93-2.16-6.46c1.06-6.26,2.21-12.52,3.15-18.8a4.3,4.3,0,0,0-1.05-3.18c-4.33-4.42-8.79-8.71-13.25-13-2-1.92-3.37-4-2.34-6.89s3.35-3.43,6-3.79c6.21-.83,12.42-1.71,18.59-2.75a4,4,0,0,0,2.42-2C92.44,82.65,95.2,76.93,98,71.23,99.1,69,100.7,67.46,103.39,67.31Zm14.74,63.4c-.74-4.58-1.31-8.71-2.12-12.78a6.41,6.41,0,0,1,2-6.3q3.77-3.63,7.51-7.3c.51-.51.94-1.11,1.59-1.88-4.25-.62-8-1.35-11.85-1.7A7.3,7.3,0,0,1,108.74,96c-1.6-3.54-3.43-7-5.4-10.94-2.07,4.17-4,7.79-5.68,11.48a6.73,6.73,0,0,1-5.78,4.12c-4,.47-8,1.16-11.92,1.74,3,3.18,5.82,6.26,8.74,9.26a6.58,6.58,0,0,1,2,6.32c-.81,4.07-1.38,8.18-2.14,12.79,4.07-2.15,7.66-3.94,11.15-5.9a6.94,6.94,0,0,1,7.35,0C110.51,126.83,114.1,128.61,118.13,130.71Z"/></g></g></g></svg>